<svg width="50" height="56" viewBox="0 0 50 56" fill="none" xmlns="http://www.w3.org/2000/svg">
<g filter="url(#filter0_dd_1_128)">
<path d="M22.4403 0.103802C16.377 0.713886 10.7924 4.10219 7.32905 9.2832C5.6959 11.7329 4.46635 15.1212 4.09092 18.1998C3.95013 19.373 3.97829 21.5881 4.13785 22.5361C5.15152 28.3084 10.8675 36.4554 20.0469 45.203C21.9335 46.9957 22.3559 47.3524 22.9472 47.6527C23.6136 47.9812 23.698 48 24.5522 48C25.4063 48 25.4907 47.9812 26.1571 47.6527C26.7485 47.3524 27.1708 46.9957 29.0574 45.203C35.0174 39.5245 39.8136 33.7334 42.4604 28.9936C43.7651 26.6471 44.5441 24.6667 44.9289 22.6956C45.1354 21.635 45.173 19.5232 45.0134 18.1998C44.6661 15.3183 43.5961 12.2304 42.1319 9.84636C40.9962 8.00672 39.1284 5.8949 37.4484 4.53394C33.2623 1.17379 27.8184 -0.440578 22.4403 0.103802ZM27.5556 1.6337C32.5208 2.45966 36.9509 5.14402 39.9169 9.13303C41.8973 11.7892 43.0799 14.6707 43.568 18.0121C43.7932 19.6171 43.7182 21.9635 43.3803 23.2212C41.9161 28.7777 36.6787 35.9391 27.9405 44.3207C26.7766 45.4283 25.838 46.2542 25.594 46.3762C25.0308 46.6484 24.402 46.6954 23.8201 46.4983C23.2569 46.3199 21.9992 45.1936 19.2116 42.406C13.2797 36.4835 9.39395 31.4902 7.18826 26.9756C5.81792 24.188 5.40494 22.6299 5.40494 20.3116C5.40494 11.7517 11.4588 4.10219 19.9155 1.97159C20.6289 1.79326 22.1306 1.53046 22.9096 1.45537C23.698 1.38028 26.7015 1.49291 27.5556 1.6337Z" fill="#FFB60A"/>
<path d="M22.9565 5.25629C19.4556 5.65988 16.4427 7.05838 13.9085 9.47055C11.6277 11.6481 10.1166 14.3606 9.42207 17.5706C9.24373 18.3965 9.21558 18.8095 9.21558 20.5928C9.21558 22.3761 9.24373 22.7891 9.42207 23.6057C9.88197 25.7081 10.7924 27.82 11.9469 29.4625C12.8573 30.7484 14.6031 32.4566 15.8608 33.3013C19.3242 35.6103 23.0504 36.4362 27.1332 35.7886C27.6495 35.7041 28.2032 35.5821 28.3722 35.5164C28.8602 35.3099 28.9259 34.6529 28.4848 34.3244C28.2502 34.1461 28.2314 34.1461 27.1708 34.3525C25.7723 34.6341 23.454 34.6529 22.1118 34.3995C19.2303 33.8457 16.7149 32.5223 14.65 30.448C13.3266 29.134 11.8342 26.9471 12.1252 26.7594C12.1815 26.7218 13.2891 25.8114 14.5749 24.7414C16.1048 23.4743 16.9495 22.714 16.9871 22.5639C17.1185 22.057 16.5366 21.5314 16.0767 21.7473C15.964 21.7942 14.8753 22.6671 13.6645 23.6714L11.4588 25.5016L11.3274 25.2107C11.1209 24.7226 10.7736 23.249 10.6516 22.3574C10.4827 21.0903 10.5953 18.7626 10.8769 17.5424C12.0689 12.521 15.6825 8.64459 20.5443 7.1804C21.9804 6.74865 22.8908 6.61724 24.5521 6.61724C26.373 6.61724 27.3679 6.7768 28.9729 7.3118C30.8688 7.94065 32.5583 8.92617 33.9568 10.212C34.8015 11.0005 35.1206 11.1131 35.4773 10.7564C35.9184 10.3153 35.8246 10.0525 34.9423 9.21713C31.8543 6.29812 27.2271 4.76822 22.9565 5.25629Z" fill="#FFB60A"/>
<path d="M27.931 11.6953C27.3209 11.9206 26.5044 12.7559 26.2885 13.4035C25.913 14.5392 26.2979 15.8157 27.2271 16.529C28.6537 17.6178 30.6341 17.1485 31.4789 15.5248C31.8355 14.8302 31.8355 13.8541 31.4695 13.1126C31.1504 12.465 30.5215 11.883 29.9302 11.6859C29.3858 11.4982 28.4848 11.5076 27.931 11.6953ZM29.6205 13.0844C30.4746 13.5256 30.5966 14.7176 29.8551 15.3652C29.245 15.9096 28.2783 15.7969 27.7996 15.1305C27.5274 14.7551 27.4993 14.0042 27.7339 13.6194C28.1281 13 28.9822 12.7559 29.6205 13.0844Z" fill="#FFB60A"/>
<path d="M36.3877 12.155C36.1436 12.4647 36.1436 12.6242 36.3783 13.0372C36.8664 13.8913 37.5046 15.2148 37.7392 15.853C38.2649 17.3266 38.4526 18.3872 38.5089 20.2831C38.537 21.2593 38.537 22.0477 38.4995 22.0477C38.462 22.0477 37.5797 21.3625 36.5378 20.5272C35.496 19.6824 34.4917 18.9222 34.3134 18.8377C33.9004 18.6218 33.3373 18.6312 32.8586 18.8471C32.6521 18.9503 31.6853 19.6824 30.7186 20.499C29.4984 21.5033 28.9165 21.935 28.8414 21.8787C28.7757 21.8318 27.4523 20.7806 25.9036 19.5323C24.3456 18.2933 22.9752 17.2515 22.8626 17.2139C22.4309 17.0732 21.7457 17.1389 21.3984 17.3453C20.7226 17.7489 18.0007 20.0766 17.9444 20.3113C17.813 20.8181 18.3949 21.3437 18.8548 21.1372C18.9675 21.0809 19.7183 20.4896 20.5161 19.8232C21.3139 19.1568 22.0367 18.5843 22.1211 18.5561C22.2056 18.5186 22.3745 18.5655 22.5059 18.65C23.0503 19.016 35.6274 29.1153 35.6274 29.1903C35.6274 29.2279 35.1769 29.7253 34.6231 30.2885C33.5062 31.4242 32.6145 32.1187 31.4038 32.8039C30.9626 33.0479 30.5309 33.3107 30.4464 33.3858C30.2118 33.5829 30.2305 34.1085 30.4652 34.3432C30.728 34.606 31.0377 34.5778 31.7135 34.2399C35.0737 32.5505 37.9457 29.1622 39.1847 25.4454C39.776 23.6714 39.8886 22.8736 39.8886 20.5929C39.8886 18.3215 39.776 17.5237 39.1847 15.7404C38.8374 14.6704 37.8988 12.7369 37.5046 12.2582C37.1292 11.8171 36.688 11.7701 36.3877 12.155ZM35.9653 21.86C37.8237 23.3429 38.1992 23.6808 38.1804 23.8592C38.0677 24.6288 36.9978 27.2005 36.5472 27.8012C36.4346 27.9514 36.1436 27.7355 33.2528 25.4172C31.507 24.0187 30.0991 22.8549 30.1273 22.8267C30.5403 22.4043 33.4593 20.0766 33.5719 20.0766C33.6564 20.0766 34.7264 20.8838 35.9653 21.86Z" fill="#FFB60A"/>
</g>
<defs>
<filter id="filter0_dd_1_128" x="0" y="0" width="49.1122" height="56" filterUnits="userSpaceOnUse" color-interpolation-filters="sRGB">
<feFlood flood-opacity="0" result="BackgroundImageFix"/>
<feColorMatrix in="SourceAlpha" type="matrix" values="0 0 0 0 0 0 0 0 0 0 0 0 0 0 0 0 0 0 127 0" result="hardAlpha"/>
<feOffset dy="4"/>
<feGaussianBlur stdDeviation="2"/>
<feComposite in2="hardAlpha" operator="out"/>
<feColorMatrix type="matrix" values="0 0 0 0 0 0 0 0 0 0 0 0 0 0 0 0 0 0 0.25 0"/>
<feBlend mode="normal" in2="BackgroundImageFix" result="effect1_dropShadow_1_128"/>
<feColorMatrix in="SourceAlpha" type="matrix" values="0 0 0 0 0 0 0 0 0 0 0 0 0 0 0 0 0 0 127 0" result="hardAlpha"/>
<feOffset dy="4"/>
<feGaussianBlur stdDeviation="2"/>
<feComposite in2="hardAlpha" operator="out"/>
<feColorMatrix type="matrix" values="0 0 0 0 0 0 0 0 0 0 0 0 0 0 0 0 0 0 0.25 0"/>
<feBlend mode="normal" in2="effect1_dropShadow_1_128" result="effect2_dropShadow_1_128"/>
<feBlend mode="normal" in="SourceGraphic" in2="effect2_dropShadow_1_128" result="shape"/>
</filter>
</defs>
</svg>
